<svg width="200" height="200" viewBox="0 0 200 200" fill="none" xmlns="http://www.w3.org/2000/svg">
  <rect width="200" height="200" rx="10" fill="#F5F9FC"/>
  <path d="M100 42C66.8629 42 40 68.8629 40 102C40 135.137 66.8629 162 100 162C133.137 162 160 135.137 160 102C160 68.8629 133.137 42 100 42Z" fill="#0056D2"/>
  <path d="M53.5 101.9C53.5 84.8 64.7 70.6 80.3 66.6C75.6 65.2 70.7 64.5 65.6 64.5C41.9 64.5 22.9 81.5 22.9 102.6C22.9 123.7 41.8 140.7 65.6 140.7C70.7 140.7 75.6 140 80.3 138.6C64.7 134.6 53.5 120.4 53.5 103.3V101.9Z" fill="#0056D2"/>
  <path d="M100 83.4C92.5 83.4 86.5 89.4 86.5 96.9C86.5 104.4 92.5 110.4 100 110.4C107.5 110.4 113.5 104.4 113.5 96.9C113.5 89.4 107.5 83.4 100 83.4Z" fill="white"/>
  <path d="M134.5 101.9C134.5 119 123.3 133.2 107.7 137.2C112.4 138.6 117.3 139.3 122.4 139.3C146.1 139.3 165.1 122.3 165.1 101.2C165.1 80.1 146.2 63.1 122.4 63.1C117.3 63.1 112.4 63.8 107.7 65.2C123.3 69.2 134.5 83.4 134.5 100.5V101.9Z" fill="#0056D2"/>
  <path d="M100 128.8C84.3 128.8 71.6 116.1 71.6 100.4C71.6 84.7 84.3 72 100 72C115.7 72 128.4 84.7 128.4 100.4C128.4 116.1 115.7 128.8 100 128.8ZM100 75.8C86.5 75.8 75.4 86.9 75.4 100.4C75.4 113.9 86.5 125 100 125C113.5 125 124.6 113.9 124.6 100.4C124.6 86.9 113.5 75.8 100 75.8Z" fill="white"/>

  <!-- Plus sign -->
  <rect x="138" y="138" width="40" height="40" rx="20" fill="#0056D2"/>
  <path d="M158 148V168" stroke="white" stroke-width="4" stroke-linecap="round"/>
  <path d="M148 158H168" stroke="white" stroke-width="4" stroke-linecap="round"/>
</svg> 