<svg width="1440" height="600" viewBox="0 0 1440 600" fill="none" xmlns="http://www.w3.org/2000/svg">
  <rect width="1440" height="600" fill="url(#gradient)" />
  <path d="M0 500L80 520C160 540 320 580 480 570C640 560 800 500 960 480C1120 460 1280 480 1360 490L1440 500V600H1360C1280 600 1120 600 960 600C800 600 640 600 480 600C320 600 160 600 80 600H0V500Z" fill="rgba(255, 255, 255, 0.1)" />
  <path d="M0 550L80 540C160 530 320 510 480 520C640 530 800 570 960 590C1120 610 1280 610 1360 610L1440 610V600H1360C1280 600 1120 600 960 600C800 600 640 600 480 600C320 600 160 600 80 600H0V550Z" fill="rgba(255, 255, 255, 0.2)" />
  <g opacity="0.3">
    <circle cx="200" cy="150" r="50" fill="white" fillOpacity="0.1" />
    <circle cx="1200" cy="250" r="70" fill="white" fillOpacity="0.1" />
    <circle cx="600" cy="450" r="40" fill="white" fillOpacity="0.1" />
    <circle cx="1000" cy="100" r="30" fill="white" fillOpacity="0.1" />
    <circle cx="400" cy="300" r="60" fill="white" fillOpacity="0.1" />
  </g>
  <defs>
    <linearGradient id="gradient" x1="0" y1="0" x2="1440" y2="600" gradientUnits="userSpaceOnUse">
      <stop offset="0" stopColor="#3B82F6" />
      <stop offset="1" stopColor="#4F46E5" />
    </linearGradient>
  </defs>
</svg> 