<svg width="500" height="400" viewBox="0 0 500 400" fill="none" xmlns="http://www.w3.org/2000/svg">
  <rect width="500" height="400" rx="20" fill="white" fillOpacity="0.1" />
  <rect x="100" y="80" width="300" height="200" rx="10" fill="white" fillOpacity="0.2" stroke="white" stroke-width="2" />
  <rect x="130" y="120" width="240" height="20" rx="5" fill="white" fillOpacity="0.3" />
  <rect x="130" y="160" width="200" height="20" rx="5" fill="white" fillOpacity="0.3" />
  <rect x="130" y="200" width="180" height="20" rx="5" fill="white" fillOpacity="0.3" />
  <circle cx="380" cy="100" r="20" fill="#3B82F6" />
  <path d="M180 300L220 260L260 320L300 240L340 280" stroke="#3B82F6" stroke-width="4" stroke-linecap="round" stroke-linejoin="round" />
  <path d="M400 300H150M150 250V350" stroke="white" stroke-width="2" stroke-linecap="round" stroke-linejoin="round" />
  <circle cx="220" cy="260" r="8" fill="#3B82F6" />
  <circle cx="260" cy="320" r="8" fill="#3B82F6" />
  <circle cx="300" cy="240" r="8" fill="#3B82F6" />
  <circle cx="340" cy="280" r="8" fill="#3B82F6" />
  <path d="M370 90L380 100L390 80" stroke="white" stroke-width="2" stroke-linecap="round" stroke-linejoin="round" />
  <rect x="50" y="50" width="400" height="300" rx="10" stroke="white" stroke-width="2" stroke-dasharray="10 5" />
</svg> 