<?xml version="1.0" encoding="UTF-8" standalone="no"?>
<svg width="120" height="40" viewBox="0 0 120 40" fill="none" xmlns="http://www.w3.org/2000/svg">
  <rect width="120" height="40" rx="4" fill="#4338CA" />
  <path d="M18.384 28.768C17.28 28.768 16.272 28.576 15.36 28.192C14.448 27.808 13.664 27.264 13.008 26.56C12.352 25.856 11.84 25.04 11.472 24.112C11.12 23.168 10.944 22.16 10.944 21.088V20.96C10.944 19.888 11.12 18.88 11.472 17.936C11.84 16.992 12.352 16.176 13.008 15.488C13.664 14.784 14.448 14.24 15.36 13.856C16.272 13.472 17.28 13.28 18.384 13.28C19.488 13.28 20.496 13.472 21.408 13.856C22.32 14.24 23.104 14.784 23.76 15.488C24.416 16.176 24.928 16.992 25.296 17.936C25.664 18.88 25.848 19.888 25.848 20.96V21.088C25.848 22.16 25.664 23.168 25.296 24.112C24.928 25.04 24.416 25.856 23.76 26.56C23.104 27.264 22.32 27.808 21.408 28.192C20.496 28.576 19.488 28.768 18.384 28.768ZM18.384 25.184C19.248 25.184 19.976 24.928 20.568 24.416C21.16 23.904 21.456 23.136 21.456 22.112V19.936C21.456 18.912 21.16 18.144 20.568 17.632C19.976 17.12 19.248 16.864 18.384 16.864C17.52 16.864 16.792 17.12 16.2 17.632C15.608 18.144 15.312 18.912 15.312 19.936V22.112C15.312 23.136 15.608 23.904 16.2 24.416C16.792 24.928 17.52 25.184 18.384 25.184Z" fill="white"/>
  <path d="M36.4823 13.328L32.4023 28.48H27.6823L31.6983 13.328H36.4823Z" fill="white"/>
  <path d="M46.9401 28.768C45.8361 28.768 44.7961 28.576 43.8201 28.192C42.8601 27.792 42.0281 27.248 41.3241 26.56C40.6361 25.856 40.0961 25.04 39.7041 24.112C39.3281 23.168 39.1401 22.16 39.1401 21.088V20.96C39.1401 19.888 39.3281 18.88 39.7041 17.936C40.0961 16.992 40.6361 16.176 41.3241 15.488C42.0281 14.784 42.8601 14.24 43.8201 13.856C44.7961 13.472 45.8361 13.28 46.9401 13.28C48.5881 13.28 50.0121 13.696 51.2121 14.528C52.4121 15.344 53.2601 16.464 53.7561 17.888L49.6921 19.6C49.4321 18.928 49.0641 18.432 48.5881 18.112C48.1121 17.776 47.5521 17.608 46.9401 17.608C46.1081 17.608 45.4361 17.888 44.9241 18.448C44.4121 19.008 44.1561 19.808 44.1561 20.848V21.2C44.1561 22.24 44.4121 23.04 44.9241 23.6C45.4361 24.16 46.1081 24.44 46.9401 24.44C47.5521 24.44 48.1121 24.272 48.5881 23.936C49.0641 23.6 49.4321 23.104 49.6921 22.448L53.7561 24.16C53.2601 25.584 52.4121 26.712 51.2121 27.544C50.0121 28.36 48.5881 28.768 46.9401 28.768Z" fill="white"/>
  <path d="M55.708 28.48V13.328H64.204C65.308 13.328 66.268 13.536 67.084 13.952C67.9 14.352 68.524 14.928 68.956 15.68C69.404 16.416 69.628 17.28 69.628 18.272C69.628 19.248 69.396 20.096 68.932 20.816C68.484 21.536 67.868 22.096 67.084 22.496C66.3 22.88 65.388 23.072 64.348 23.072H59.62V28.48H55.708ZM59.62 19.312H63.124C63.684 19.312 64.124 19.176 64.444 18.904C64.764 18.632 64.924 18.256 64.924 17.776C64.924 17.312 64.764 16.944 64.444 16.672C64.124 16.384 63.684 16.24 63.124 16.24H59.62V19.312Z" fill="white"/>
  <path d="M80.1582 28.48H76.2462V13.328H80.1582V19.264H86.0062V13.328H89.9422V28.48H86.0062V22.4H80.1582V28.48Z" fill="white"/>
  <path d="M93.8135 28.48V13.328H102.934C104.038 13.328 104.998 13.536 105.814 13.952C106.638 14.352 107.262 14.928 107.686 15.68C108.126 16.416 108.346 17.28 108.346 18.272C108.346 19.28 108.118 20.144 107.662 20.864C107.222 21.584 106.598 22.136 105.79 22.52C104.998 22.904 104.078 23.096 103.03 23.096H100.694L108.082 28.48H103.39L97.7255 23.096V28.48H93.8135ZM97.7255 19.336H101.854C102.414 19.336 102.854 19.192 103.174 18.904C103.494 18.616 103.654 18.232 103.654 17.752C103.654 17.288 103.494 16.92 103.174 16.648C102.854 16.376 102.414 16.24 101.854 16.24H97.7255V19.336Z" fill="white"/>
</svg> 