<svg width="800" height="600" viewBox="0 0 800 600" fill="none" xmlns="http://www.w3.org/2000/svg">
  <!-- Gradient background -->
  <rect width="800" height="600" fill="url(#paint0_linear)"/>
  
  <!-- Decorative shapes -->
  <circle cx="400" cy="300" r="280" fill="url(#paint1_radial)" fill-opacity="0.7"/>
  <circle cx="200" cy="150" r="80" fill="#E6F7F5" fill-opacity="0.6"/>
  <circle cx="600" cy="450" r="100" fill="#E6F7F5" fill-opacity="0.5"/>
  
  <!-- Speech bubble -->
  <path d="M250 200C250 177.909 267.909 160 290 160H510C532.091 160 550 177.909 550 200V340C550 362.091 532.091 380 510 380H400L340 440V380H290C267.909 380 250 362.091 250 340V200Z" fill="white" stroke="#00A896" stroke-width="8"/>
  
  <!-- Sound waves -->
  <path d="M580 300C580 300 600 250 600 300C600 350 580 300 580 300Z" stroke="#00A896" stroke-width="8" stroke-linecap="round"/>
  <path d="M620 300C620 300 650 220 650 300C650 380 620 300 620 300Z" stroke="#00A896" stroke-width="8" stroke-linecap="round"/>
  <path d="M660 300C660 300 700 180 700 300C700 420 660 300 660 300Z" stroke="#00A896" stroke-width="8" stroke-linecap="round"/>
  
  <!-- Microphone -->
  <rect x="360" y="220" width="80" height="140" rx="40" fill="#00A896"/>
  <rect x="390" y="120" width="20" height="100" rx="10" fill="#00A896"/>
  <rect x="330" y="120" width="140" height="30" rx="15" fill="#00A896"/>
  
  <!-- Text lines -->
  <rect x="280" y="420" width="240" height="12" rx="6" fill="#005F56"/>
  <rect x="280" y="450" width="180" height="12" rx="6" fill="#00A896"/>
  <rect x="280" y="480" width="210" height="12" rx="6" fill="#00A896"/>
  
  <!-- Gradient definitions -->
  <defs>
    <linearGradient id="paint0_linear" x1="0" y1="0" x2="800" y2="600" gradientUnits="userSpaceOnUse">
      <stop stop-color="#F3F9F9"/>
      <stop offset="1" stop-color="#DCF2F0"/>
    </linearGradient>
    <radialGradient id="paint1_radial" cx="0" cy="0" r="1" gradientUnits="userSpaceOnUse" gradientTransform="translate(400 300) rotate(90) scale(280)">
      <stop stop-color="#E6F7F5"/>
      <stop offset="1" stop-color="#E6F7F5" stop-opacity="0"/>
    </radialGradient>
  </defs>
</svg> 