<svg width="800" height="800" viewBox="0 0 800 800" fill="none" xmlns="http://www.w3.org/2000/svg">
  <!-- Background circle -->
  <circle cx="400" cy="400" r="350" fill="#F5F7FA" />
  
  <!-- Main microphone body -->
  <rect x="325" y="180" width="150" height="250" rx="75" fill="#3B82F6" />
  
  <!-- Microphone stand -->
  <rect x="390" y="430" width="20" height="120" rx="10" fill="#3B82F6" />
  
  <!-- Base stand -->
  <rect x="325" y="550" width="150" height="20" rx="10" fill="#3B82F6" />
  
  <!-- Sound waves -->
  <path d="M250 350C250 250 250 150 400 150C550 150 550 250 550 350" stroke="#3B82F6" stroke-width="10" stroke-linecap="round" fill="none" />
  <path d="M300 350C300 280 300 200 400 200C500 200 500 280 500 350" stroke="#3B82F6" stroke-width="10" stroke-linecap="round" fill="none" />
  <path d="M350 350C350 300 350 250 400 250C450 250 450 300 450 350" stroke="#3B82F6" stroke-width="10" stroke-linecap="round" fill="none" />
  
  <!-- Details -->
  <line x1="325" y1="230" x2="475" y2="230" stroke="#1E40AF" stroke-width="5" />
  <line x1="325" y1="280" x2="475" y2="280" stroke="#1E40AF" stroke-width="5" />
  <line x1="325" y1="330" x2="475" y2="330" stroke="#1E40AF" stroke-width="5" />
  
  <!-- Text -->
  <text x="400" y="650" font-family="Arial, sans-serif" font-size="48" font-weight="bold" fill="#3B82F6" text-anchor="middle">Speech Recognition</text>
  <text x="400" y="700" font-family="Arial, sans-serif" font-size="28" fill="#64748B" text-anchor="middle">Powered by Microsoft API</text>
</svg> 