<svg width="200" height="200" viewBox="0 0 200 200" fill="none" xmlns="http://www.w3.org/2000/svg">
  <rect width="200" height="200" rx="0" fill="white"/>
  <path d="M30 40h140v120H30z" fill="#F9FAFB"/>
  <path d="M30 40h140" stroke="#E5E7EB" stroke-width="1.5"/>
  <path d="M30 160h140" stroke="#E5E7EB" stroke-width="1.5"/>
  <path d="M40 50h10M40 60h15M40 70h12" stroke="#E5E7EB" stroke-width="1.5" stroke-linecap="round"/>
  <path d="M150 50h10M145 60h15M148 70h12" stroke="#E5E7EB" stroke-width="1.5" stroke-linecap="round"/>
  
  <!-- Terminal/Code window in the middle -->
  <rect x="60" y="55" width="80" height="90" rx="4" fill="#1F2937"/>
  <rect x="60" y="55" width="80" height="10" rx="4" fill="#374151"/>
  <circle cx="66" cy="60" r="2" fill="#EF4444"/>
  <circle cx="74" cy="60" r="2" fill="#F59E0B"/>
  <circle cx="82" cy="60" r="2" fill="#10B981"/>
  
  <!-- Code lines -->
  <path d="M70 80h18M70 90h24M70 100h20M70 110h26M70 120h15" stroke="#00A19A" stroke-width="1.5" stroke-linecap="round"/>
  <path d="M110 80h20M115 90h15M110 100h10M112 110h18M108 120h22" stroke="#6D28D9" stroke-opacity="0.6" stroke-width="1.5" stroke-linecap="round"/>
  
  <!-- 404 text -->
  <path d="M85 135h30" stroke="#E5E7EB" stroke-width="1.5" stroke-linecap="round"/>
  <text x="100" y="130" font-family="monospace" font-weight="bold" font-size="16" text-anchor="middle" fill="#00A19A">404</text>
  
  <!-- Binary pattern -->
  <text x="135" y="155" font-family="monospace" font-size="6" fill="#9CA3AF">10110</text>
  <text x="70" y="72" font-family="monospace" font-size="6" fill="#9CA3AF">01001</text>

  <!-- Circuit lines in background -->
  <path d="M30 100h10M190 85h-10M30 130h15M175 140h15" stroke="#E5E7EB" stroke-width="1" stroke-linecap="round"/>
  <path d="M20 100c0-22.091 17.909-40 40-40M180 100c0 22.091-17.909 40-40 40" stroke="#E5E7EB" stroke-width="1" stroke-linecap="round" stroke-dasharray="2 3"/>
  
  <!-- Connection points -->
  <circle cx="40" cy="100" r="2" fill="#00A19A"/>
  <circle cx="180" cy="85" r="2" fill="#00A19A"/>
  <circle cx="45" cy="130" r="2" fill="#00A19A"/>
  <circle cx="175" cy="140" r="2" fill="#00A19A"/>
</svg> 