<svg xmlns="http://www.w3.org/2000/svg" viewBox="0 0 900 600">
  <path fill="#de2910" d="M0 0h900v600H0z"/>
  <g fill="#ffde00">
    <path d="M132 38l84 259-220-160h272l-220 160z"/>
    <path d="M252.8 107.6l-14.4 19.2 5.6-23.2-23.2 5.6 19.2-14.4-19.2-14.4 23.2 5.6-5.6-23.2 14.4 19.2 14.4-19.2-5.6 23.2 23.2-5.6-19.2 14.4 19.2 14.4-23.2-5.6 5.6 23.2-14.4-19.2z"/>
    <path d="M317.6 139.2l-22.4 7.2 10.4-21.6-19.2 13.6 16-18.4-24 1.6 20-12.8-22.4-8 20.8-6.4-16.8-17.6 19.2 12.8-10.4-21.6 16 18.4-1.6-24 7.2 22.4 7.2-22.4-1.6 24 16-18.4-10.4 21.6 19.2-12.8-16.8 17.6 20.8 6.4-22.4 8 20 12.8-24-1.6 16 18.4-19.2-13.6 10.4 21.6-22.4-7.2z"/>
    <path d="M347.2 220l-22.4-7.2 13.6 19.2-21.6-10.4 18.4 16-24-1.6 19.2 13.6-21.6-10.4 17.6 16.8-23.2-6.4 12.8 20-21.6-10.4 6.4 20.8-17.6-16.8 0 24-12.8-20 0 24-12.8-20-6.4 23.2 12.8-20-13.6 19.2 17.6-16.8-16 18.4 20.8-6.4-16.8 17.6 21.6 10.4-23.2 6.4 21.6 10.4-24 1.6 18.4-16-21.6 10.4 13.6-19.2-22.4 7.2z"/>
    <path d="M317.6 299.2l-14.4-19.2 5.6 23.2-23.2-5.6 19.2 14.4-19.2 14.4 23.2-5.6-5.6 23.2 14.4-19.2 14.4 19.2-5.6-23.2 23.2 5.6-19.2-14.4 19.2-14.4-23.2 5.6 5.6-23.2-14.4 19.2z"/>
  </g>
</svg> 