<svg xmlns="http://www.w3.org/2000/svg" viewBox="0 0 750 500">
  <rect width="750" height="500" fill="#c60b1e"/>
  <rect width="750" height="250" y="125" fill="#ffc400"/>
  <path d="M250 250h50v125h-50z" fill="#c60b1e"/>
  <path d="M150 250h50v125h-50zM350 250h50v125h-50z" fill="#c60b1e"/>
  <path d="M150 250c0-50 50-50 100-50s100 0 100 50" fill="#c60b1e"/>
  <path d="M175 225c0-25 25-25 50-25s50 0 50 25" fill="#ffc400"/>
  <path d="M175 225c0 25 25 25 50 25s50 0 50-25" fill="#ffc400"/>
  <path d="M200 225a25 25 0 0 1 50 0 25 25 0 0 1-50 0" fill="#c60b1e"/>
</svg> 